<?xml version="1.0" encoding="UTF-8" standalone="no"?>
<!-- Created with Inkscape (http://www.inkscape.org/) -->

<svg
   xmlns:dc="http://purl.org/dc/elements/1.1/"
   xmlns:cc="http://creativecommons.org/ns#"
   xmlns:rdf="http://www.w3.org/1999/02/22-rdf-syntax-ns#"
   xmlns:svg="http://www.w3.org/2000/svg"
   xmlns="http://www.w3.org/2000/svg"
   xmlns:sodipodi="http://sodipodi.sourceforge.net/DTD/sodipodi-0.dtd"
   xmlns:inkscape="http://www.inkscape.org/namespaces/inkscape"
   width="150mm"
   height="150mm"
   viewBox="0 0 150 150"
   version="1.1"
   id="svg8"
   sodipodi:docname="face.svg"
   inkscape:version="0.92.4 (5da689c313, 2019-01-14)">
  <defs
     id="defs2" />
  <sodipodi:namedview
     id="base"
     pagecolor="#ffffff"
     bordercolor="#666666"
     borderopacity="1.0"
     inkscape:pageopacity="0.0"
     inkscape:pageshadow="2"
     inkscape:zoom="0.7"
     inkscape:cx="-305.18053"
     inkscape:cy="288.53708"
     inkscape:document-units="mm"
     inkscape:current-layer="layer1"
     showgrid="false"
     inkscape:window-width="1920"
     inkscape:window-height="1017"
     inkscape:window-x="-8"
     inkscape:window-y="-8"
     inkscape:window-maximized="1" />
  <metadata
     id="metadata5">
    <rdf:RDF>
      <cc:Work
         rdf:about="">
        <dc:format>image/svg+xml</dc:format>
        <dc:type
           rdf:resource="http://purl.org/dc/dcmitype/StillImage" />
        <dc:title></dc:title>
      </cc:Work>
    </rdf:RDF>
  </metadata>
  <g
     inkscape:label="Layer 1"
     inkscape:groupmode="layer"
     id="layer1"
     transform="translate(0,-147)">
    <ellipse
       style="fill:#f2f2f2;stroke-width:0.33834335"
       id="path3995-7"
       cx="75.503647"
       cy="222.29816"
       rx="72.258675"
       ry="74.479401" />
    <ellipse
       style="fill:#5fbcd3;stroke-width:0.31744143"
       id="path3995"
       cx="75.503639"
       cy="221.95648"
       rx="67.475601"
       ry="70.208794" />
    <ellipse
       style="fill:#784421;stroke-width:0.33821484"
       id="path3824"
       cx="35.231808"
       cy="217.48358"
       rx="4.2279019"
       ry="9.3099241" />
    <ellipse
       style="fill:#784421;stroke-width:0.33821484"
       id="path3824-1"
       cx="117.13995"
       cy="218.17397"
       rx="4.2279019"
       ry="9.3099241" />
    <ellipse
       id="path3713"
       cx="76.335304"
       cy="220.26024"
       rx="40.456051"
       ry="54.608707"
       style="fill:#a05a2c;stroke-width:0.35120952" />
    <ellipse
       style="fill:#a05a2c;stroke-width:0.31466633"
       id="path3717"
       cx="76.392342"
       cy="207.47241"
       rx="40.626873"
       ry="41.907017" />
    <rect
       style="fill:#241f1c;stroke-width:0.41977817"
       id="rect3865-1"
       width="9.5925236"
       height="25.002291"
       x="107.52568"
       y="191.39172"
       ry="0.7539621"
       transform="skewY(1.1644102e-4)"
       rx="2.2206848" />
    <rect
       style="fill:#241f1c;stroke-width:0.41977817"
       id="rect3865"
       width="8.7384062"
       height="23.635698"
       x="35.712559"
       y="192.13034"
       ry="0.7539621"
       transform="skewY(1.1644102e-4)" />
    <ellipse
       style="fill:#241f1c;stroke-width:0.24323201"
       id="path3717-5"
       cx="76.3172"
       cy="190.06628"
       rx="40.838261"
       ry="24.91" />
    <ellipse
       style="fill:#a05a2c;stroke-width:0.20449603"
       id="path3717-5-8"
       cx="77.6437"
       cy="205.0988"
       rx="33.19128"
       ry="21.664337" />
    <path
       sodipodi:type="inkscape:offset"
       inkscape:radius="4.8936033"
       inkscape:original="M -2.40625 155.61523 L -2.671875 184.21289 L 25.925781 184.48047 L 26.193359 155.88086 L -2.40625 155.61523 z "
       style="fill:#1a1a1a;stroke-width:0.26458332"
       id="path3730"
       d="m -2.3613281,150.72266 a 4.8940927,4.8940927 0 0 0 -4.9375,4.84765 l -0.265625,28.59766 a 4.8940927,4.8940927 0 0 0 4.8476562,4.9375 l 28.5976559,0.26758 a 4.8940927,4.8940927 0 0 0 4.9375,-4.84766 l 0.267579,-28.59961 a 4.8940927,4.8940927 0 0 0 -4.847657,-4.9375 z"
       transform="matrix(0.78241539,0,0,0.49017827,47.300163,133.82766)" />
    <path
       sodipodi:type="inkscape:offset"
       inkscape:radius="8.5633364"
       inkscape:original="M -2.40625 155.61523 L -2.671875 184.21289 L 25.925781 184.48047 L 26.193359 155.88086 L -2.40625 155.61523 z "
       style="fill:#a05a2c;stroke-width:0.26458332"
       id="path3730-7"
       d="m -2.3261719,147.05273 a 8.5641927,8.5641927 0 0 0 -8.6425781,8.48243 l -0.265625,28.59765 a 8.5641927,8.5641927 0 0 0 8.4824219,8.64258 l 28.5976561,0.26758 a 8.5641927,8.5641927 0 0 0 8.642578,-8.48242 l 0.267578,-28.59961 a 8.5641927,8.5641927 0 0 0 -8.482421,-8.64258 z"
       transform="matrix(0.57043368,0,0,0.34063374,49.687102,159.17054)" />
    <path
       sodipodi:type="inkscape:offset"
       inkscape:radius="4.8936033"
       inkscape:original="M -2.40625 155.61523 L -2.671875 184.21289 L 25.925781 184.48047 L 26.193359 155.88086 L -2.40625 155.61523 z "
       style="fill:#1a1a1a;stroke-width:0.26458332"
       id="path3730-9"
       d="m -2.3613281,150.72266 a 4.8940927,4.8940927 0 0 0 -4.9375,4.84765 l -0.265625,28.59766 a 4.8940927,4.8940927 0 0 0 4.8476562,4.9375 l 28.5976559,0.26758 a 4.8940927,4.8940927 0 0 0 4.9375,-4.84766 l 0.267579,-28.59961 a 4.8940927,4.8940927 0 0 0 -4.847657,-4.9375 z"
       transform="matrix(0.78241538,0,0,0.49017829,85.856681,133.82766)" />
    <path
       sodipodi:type="inkscape:offset"
       inkscape:radius="8.5633364"
       inkscape:original="M -2.40625 155.61523 L -2.671875 184.21289 L 25.925781 184.48047 L 26.193359 155.88086 L -2.40625 155.61523 z "
       style="fill:#a05a2c;stroke-width:0.26458332"
       id="path3730-7-4"
       d="m -2.3261719,147.05273 a 8.5641927,8.5641927 0 0 0 -8.6425781,8.48243 l -0.265625,28.59765 a 8.5641927,8.5641927 0 0 0 8.4824219,8.64258 l 28.5976561,0.26758 a 8.5641927,8.5641927 0 0 0 8.642578,-8.48242 l 0.267578,-28.59961 a 8.5641927,8.5641927 0 0 0 -8.482421,-8.64258 z"
       transform="matrix(0.57043371,0,0,0.34063375,88.24362,159.17054)" />
    <ellipse
       style="fill:#1a1a1a;stroke-width:0.37240365"
       id="path3801"
       cx="75.546333"
       cy="217.78253"
       rx="4.9111986"
       ry="3.8008409" />
    <ellipse
       style="fill:#a05a2c;stroke-width:0.3548134"
       id="path3803"
       cx="75.717163"
       cy="219.49077"
       rx="4.2279019"
       ry="3.7154288" />
    <rect
       style="fill:#1a1a1a;stroke-width:0.07823105"
       id="rect3807"
       width="8.0597754"
       height="1.8825501"
       x="183.92722"
       y="262.32254"
       ry="0.62751991"
       transform="matrix(0.97859314,-0.20580442,-0.26781895,0.96346926,0,0)" />
    <rect
       style="fill:#1a1a1a;stroke-width:0.07756536"
       id="rect3807-3"
       width="8.1717987"
       height="1.8252776"
       x="-204.24234"
       y="-193.66982"
       ry="0.60842896"
       transform="matrix(-0.90659345,-0.42200511,0.73801204,-0.67478754,0,0)" />
    <ellipse
       style="fill:#241f1c;stroke-width:0.09868582"
       id="path3717-5-1"
       cx="75.204697"
       cy="181.09114"
       rx="19.100866"
       ry="8.7671013" />
    <ellipse
       style="fill:#f9f9f9;stroke-width:0.35472271"
       id="path3974"
       cx="76.443184"
       cy="248.54469"
       rx="17.765728"
       ry="12.683705" />
    <ellipse
       style="fill:#a05a2c;stroke-width:0.37092298"
       id="path3974-0"
       cx="76.05883"
       cy="240.09573"
       rx="28.143307"
       ry="8.7547464" />
    <ellipse
       ry="10.701759"
       rx="4.8599734"
       cy="219.68932"
       cx="27.466291"
       id="ellipse4014"
       style="fill:#784421;stroke-width:0.38877794" />
    <ellipse
       ry="10.701759"
       rx="4.8599734"
       cy="220.48289"
       cx="121.61969"
       id="ellipse4016"
       style="fill:#784421;stroke-width:0.38877794" />
    <ellipse
       style="fill:#a05a2c;stroke-width:0.40371531"
       ry="62.772705"
       rx="46.504234"
       cy="222.88104"
       cx="74.714752"
       id="ellipse4018" />
    <ellipse
       ry="48.172115"
       rx="46.700592"
       cy="208.18144"
       cx="74.780327"
       id="ellipse4020"
       style="fill:#a05a2c;stroke-width:0.36170894" />
    <rect
       rx="2.5526774"
       transform="skewY(1.1644102e-4)"
       ry="0.86667949"
       y="189.69678"
       x="110.56808"
       height="28.740133"
       width="11.026606"
       id="rect4022"
       style="fill:#241f1c;stroke-width:0.482535" />
    <rect
       transform="skewY(1.1644102e-4)"
       ry="0.86667949"
       y="190.54579"
       x="28.018917"
       height="27.169231"
       width="10.044798"
       id="rect4024"
       style="fill:#241f1c;stroke-width:0.482535" />
    <ellipse
       ry="28.634045"
       rx="46.943584"
       cy="188.17316"
       cx="74.693947"
       id="ellipse4026"
       style="fill:#241f1c;stroke-width:0.2795952" />
    <ellipse
       ry="24.903152"
       rx="38.153374"
       cy="205.453"
       cx="76.218758"
       id="ellipse4028"
       style="fill:#a05a2c;stroke-width:0.2350682" />
    <path
       transform="matrix(0.89938648,0,0,0.56345992,41.338864,123.52684)"
       d="m -2.3613281,150.72266 a 4.8940927,4.8940927 0 0 0 -4.9375,4.84765 l -0.265625,28.59766 a 4.8940927,4.8940927 0 0 0 4.8476562,4.9375 l 28.5976559,0.26758 a 4.8940927,4.8940927 0 0 0 4.9375,-4.84766 l 0.267579,-28.59961 a 4.8940927,4.8940927 0 0 0 -4.847657,-4.9375 z"
       id="path4030"
       style="fill:#1a1a1a;stroke-width:0.26458332"
       inkscape:original="M -2.40625 155.61523 L -2.671875 184.21289 L 25.925781 184.48047 L 26.193359 155.88086 L -2.40625 155.61523 z "
       inkscape:radius="4.8936033"
       sodipodi:type="inkscape:offset" />
    <path
       transform="matrix(0.65571352,0,0,0.39155849,44.08265,152.65847)"
       d="m -2.3261719,147.05273 a 8.5641927,8.5641927 0 0 0 -8.6425781,8.48243 l -0.265625,28.59765 a 8.5641927,8.5641927 0 0 0 8.4824219,8.64258 l 28.5976561,0.26758 a 8.5641927,8.5641927 0 0 0 8.642578,-8.48242 l 0.267578,-28.59961 a 8.5641927,8.5641927 0 0 0 -8.482421,-8.64258 z"
       id="path4032"
       style="fill:#a05a2c;stroke-width:0.26458332"
       inkscape:original="M -2.40625 155.61523 L -2.671875 184.21289 L 25.925781 184.48047 L 26.193359 155.88086 L -2.40625 155.61523 z "
       inkscape:radius="8.5633364"
       sodipodi:type="inkscape:offset" />
    <path
       transform="matrix(0.89938647,0,0,0.56345994,85.65958,123.52684)"
       d="m -2.3613281,150.72266 a 4.8940927,4.8940927 0 0 0 -4.9375,4.84765 l -0.265625,28.59766 a 4.8940927,4.8940927 0 0 0 4.8476562,4.9375 l 28.5976559,0.26758 a 4.8940927,4.8940927 0 0 0 4.9375,-4.84766 l 0.267579,-28.59961 a 4.8940927,4.8940927 0 0 0 -4.847657,-4.9375 z"
       id="path4034"
       style="fill:#1a1a1a;stroke-width:0.26458332"
       inkscape:original="M -2.40625 155.61523 L -2.671875 184.21289 L 25.925781 184.48047 L 26.193359 155.88086 L -2.40625 155.61523 z "
       inkscape:radius="4.8936033"
       sodipodi:type="inkscape:offset" />
    <path
       transform="matrix(0.65571354,0,0,0.3915585,88.403369,152.65847)"
       d="m -2.3261719,147.05273 a 8.5641927,8.5641927 0 0 0 -8.6425781,8.48243 l -0.265625,28.59765 a 8.5641927,8.5641927 0 0 0 8.4824219,8.64258 l 28.5976561,0.26758 a 8.5641927,8.5641927 0 0 0 8.642578,-8.48242 l 0.267578,-28.59961 a 8.5641927,8.5641927 0 0 0 -8.482421,-8.64258 z"
       id="path4036"
       style="fill:#a05a2c;stroke-width:0.26458332"
       inkscape:original="M -2.40625 155.61523 L -2.671875 184.21289 L 25.925781 184.48047 L 26.193359 155.88086 L -2.40625 155.61523 z "
       inkscape:radius="8.5633364"
       sodipodi:type="inkscape:offset" />
    <ellipse
       ry="4.3690667"
       rx="5.6454225"
       cy="220.03296"
       cx="73.807831"
       id="ellipse4038"
       style="fill:#1a1a1a;stroke-width:0.42807803" />
    <ellipse
       ry="4.2708855"
       rx="4.8599734"
       cy="221.9966"
       cx="74.004219"
       id="ellipse4040"
       style="fill:#a05a2c;stroke-width:0.40785798" />
    <rect
       transform="matrix(0.97859314,-0.20580442,-0.26781895,0.96346926,0,0)"
       ry="0.7213341"
       y="265.10794"
       x="188.13602"
       height="2.1639912"
       width="9.2647114"
       id="rect4042"
       style="fill:#1a1a1a;stroke-width:0.08992659" />
    <rect
       transform="matrix(-0.90659345,-0.42200511,0.73801204,-0.67478754,0,0)"
       ry="0.69938916"
       y="-198.81802"
       x="-201.02231"
       height="2.0981567"
       width="9.3934832"
       id="rect4044"
       style="fill:#1a1a1a;stroke-width:0.08916138" />
    <ellipse
       ry="10.077783"
       rx="21.956448"
       cy="177.85625"
       cx="73.415123"
       id="ellipse4046"
       style="fill:#241f1c;stroke-width:0.11343936" />
    <ellipse
       ry="14.57992"
       rx="20.421701"
       cy="255.39403"
       cx="74.83876"
       id="ellipse4048"
       style="fill:#f9f9f9;stroke-width:0.40775377" />
    <ellipse
       ry="10.063581"
       rx="32.350731"
       cy="245.68201"
       cx="74.396935"
       id="ellipse4050"
       style="fill:#a05a2c;stroke-width:0.42637596" />
  </g>
  <g
     inkscape:groupmode="layer"
     id="layer2"
     inkscape:label="Layer 2" />
</svg>
